# xmcd
#
# Track frame offsets:
#	150
#	14844
#	25134
#	39876
#	50447
#	62710
#	76671
#	89975
#	100665
#	116772
#	123328
#
# Disc length: 2030 seconds
# Revision: 0
# Processed by: cddbd v1.5.2PL0 Copyright (c) Steve Scherf et al.
# Submitted via: dBpowerAMP V12.0
#
DISCID=8a07ec0b
DTITLE=Big All Hall and Marching Rams - Big Al Hall and Marching Rams
DYEAR=2010
DGENRE=Old-Time
TTITLE0=June Apple
TTITLE1=Barlow Knife
TTITLE2=Liza Jane
TTITLE3=John Hardy
TTITLE4=Fall on My Knees
TTITLE5=Susannah Gal
TTITLE6=Gospel Plow
TTITLE7=Boat's up the River
TTITLE8=Red Rocking Chair
TTITLE9=Motherless Children
TTITLE10=Cackle in the Lot
EXTD=
EXTT0=
EXTT1=
EXTT2=
EXTT3=
EXTT4=
EXTT5=
EXTT6=
EXTT7=
EXTT8=
EXTT9=
EXTT10=
PLAYORDER=
